<?xml version="1.0" encoding="UTF-8"?>
<svg xmlns="http://www.w3.org/2000/svg" version="1.1" width="100" height="100" viewBox="0 0 100 100"><rect x="0" y="0" width="100" height="100" fill="#ffffff"/><g transform="scale(4.762)"><g transform="translate(0,0)"><path fill-rule="evenodd" d="M8 0L8 4L12 4L12 5L11 5L11 6L10 6L10 5L8 5L8 7L9 7L9 9L7 9L7 8L4 8L4 9L2 9L2 8L0 8L0 9L2 9L2 11L0 11L0 13L1 13L1 12L3 12L3 13L8 13L8 14L9 14L9 15L8 15L8 17L9 17L9 19L8 19L8 21L9 21L9 19L10 19L10 21L11 21L11 19L12 19L12 18L13 18L13 17L12 17L12 16L13 16L13 15L14 15L14 14L15 14L15 11L16 11L16 12L17 12L17 11L18 11L18 14L19 14L19 15L20 15L20 13L21 13L21 12L20 12L20 13L19 13L19 10L21 10L21 8L17 8L17 10L16 10L16 8L15 8L15 10L14 10L14 11L13 11L13 12L12 12L12 15L11 15L11 12L10 12L10 11L9 11L9 10L10 10L10 8L11 8L11 11L12 11L12 10L13 10L13 9L12 9L12 8L13 8L13 6L12 6L12 5L13 5L13 4L12 4L12 3L9 3L9 1L10 1L10 2L11 2L11 1L12 1L12 2L13 2L13 0ZM9 6L9 7L10 7L10 6ZM11 6L11 7L12 7L12 6ZM6 9L6 10L4 10L4 12L8 12L8 10L7 10L7 9ZM18 9L18 10L19 10L19 9ZM6 10L6 11L7 11L7 10ZM9 12L9 14L10 14L10 12ZM9 15L9 16L10 16L10 19L11 19L11 16L10 16L10 15ZM15 15L15 16L14 16L14 17L15 17L15 18L14 18L14 19L13 19L13 20L12 20L12 21L15 21L15 19L16 19L16 20L17 20L17 19L18 19L18 21L21 21L21 20L20 20L20 19L19 19L19 18L21 18L21 16L18 16L18 15L17 15L17 16L16 16L16 15ZM16 17L16 18L17 18L17 17ZM18 17L18 18L19 18L19 17ZM0 0L0 7L7 7L7 0ZM1 1L1 6L6 6L6 1ZM2 2L2 5L5 5L5 2ZM14 0L14 7L21 7L21 0ZM15 1L15 6L20 6L20 1ZM16 2L16 5L19 5L19 2ZM0 14L0 21L7 21L7 14ZM1 15L1 20L6 20L6 15ZM2 16L2 19L5 19L5 16Z" fill="#000000"/></g></g></svg>
